# xmcd CD database file
#
# Track frame offsets:
#	150
#	18842
#	51042
#
# Disc length: 1047 seconds
#
# Revision: 0
# Processed by: cddbd v1.5.2PL0 Copyright (c) Steve Scherf et al.
# Submitted via: CDex 1.70beta2
#
DISCID=18041503
DTITLE=The Chimes - Love comes to mind
DYEAR=1900
DGENRE=Jazz
TTITLE0=Love comes to mind - remixed
TTITLE1=Love comes to mind - Manasseh
TTITLE2=Stay - ext ver and remix
EXTD=
EXTT0=
EXTT1=
EXTT2=
PLAYORDER=
